<svg xmlns="http://www.w3.org/2000/svg" height="20px" viewBox="0 0 512 512.00176" width="24px" fill="#4D83FA">
  <path d="m464.851562.015625h-112.460937c-8.285156 0-15 6.714844-15 15s6.714844 15 15 15h68.566406c-2.078125 5.3125-3.234375 11.089844-3.234375 17.132813v17.132812h-65.332031c-8.285156 0-15 6.714844-15 15 0 8.28125 6.714844 15 15 15h65.332031v34.265625h-65.332031c-8.285156 0-15 6.714844-15 15 0 8.28125 6.714844 14.996094 15 14.996094h65.332031v34.269531h-65.332031c-8.285156 0-15 6.714844-15 14.996094 0 8.285156 6.714844 15 15 15h65.332031v34.265625h-65.332031c-8.285156 0-15 6.71875-15 15 0 8.285156 6.714844 15 15 15h65.332031v177.796875c0 25.984375 21.140625 47.128906 47.128906 47.128906 25.988282 0 47.132813-21.140625 47.132813-47.128906v-417.722656c0-25.988282-21.144531-47.132813-47.132813-47.132813zm0 0"></path>
  <path d="m321.433594 68.214844c11.738281-23.042969 2.542968-51.339844-20.5-63.082032-11.160156-5.6875-23.871094-6.683593-35.78125-2.8125-11.917969 3.871094-21.609375 12.148438-27.296875 23.3125l-30.570313 60 52.636719 103.300782zm0 0"></path>
  <path d="m286.347656 306.875-143.300781-281.242188c-8.050781-15.800781-24.070313-25.617187-41.8125-25.617187-7.339844 0-14.695313 1.769531-21.269531 5.117187-11.164063 5.691407-19.441406 15.382813-23.3125 27.296876-3.867188 11.917968-2.867188 24.625 2.820312 35.785156l140.113282 274.988281c-3.351563 3.980469-6.410157 8.214844-9.136719 12.675781-8.902344-14.574218-21.339844-26.765625-36.101563-35.386718l-33.367187-65.476563-26.421875 51.859375c-52.839844 4.175781-94.558594 48.507812-94.558594 102.398438 0 56.644531 46.082031 102.726562 102.726562 102.726562 37.097657 0 69.667969-19.769531 87.726563-49.328125 18.058594 29.558594 50.625 49.328125 87.726563 49.328125 56.640624 0 102.722656-46.082031 102.722656-102.726562-.003906-53.890626-41.71875-98.222657-94.554688-102.398438zm-183.621094 119.300781c-9.320312 0-16.898437-7.582031-16.898437-16.902343 0-9.316407 7.578125-16.898438 16.898437-16.898438 9.320313 0 16.902344 7.582031 16.902344 16.898438 0 9.320312-7.582031 16.902343-16.902344 16.902343zm175.449219 0c-9.316406 0-16.898437-7.582031-16.898437-16.902343 0-9.316407 7.582031-16.898438 16.898437-16.898438 9.320313 0 16.902344 7.582031 16.902344 16.898438 0 9.320312-7.582031 16.902343-16.902344 16.902343zm0 0"></path></svg>
